<?xml version="1.0" encoding="UTF-8"?>
<svg id="Layer_1" xmlns="http://www.w3.org/2000/svg" version="1.1" viewBox="0 0 358.34 148.36">
  <!-- Generator: Adobe Illustrator 30.0.0, SVG Export Plug-In . SVG Version: 2.1.1 Build 123)  -->
  <defs>
    <style>
      .st0, .st1, .st2 {
        fill: #c7a49c;
      }

      .st1 {
        stroke-width: .5px;
      }

      .st1, .st2 {
        stroke: #c7a49c;
        stroke-miterlimit: 10;
      }

      .st2 {
        stroke-width: 1.5px;
      }
    </style>
  </defs>
  <g id="TwWA1B.tif">
    <path class="st0" d="M227.96,25.91l-.19.57,1.16.2c-.37,1.04-2.88.48-3.28,1.25-.29.55,1.43.17,1.54.29v.58s-3.73.43-3.73.43c-.44.13-.84.9-1,1.31-.83,2.21-1.26,5.37-2.02,7.8-.6,1.91-1.46,4.42-2.23,6.24-.35.83-1.54,2.54-1.6,3.23-.08.88,1.1,2.35,1.1,3.59-.01,2.99-2.2,7.18-2.31,10.22-.06,1.87,1.68,2.34,2.91,3.46,2.19,2,4.36,4.43,6.03,6.89.37.55,1.64,2.16,1.48,2.7-.07.24-1.09.97-1.31,1.01-.32.07-.57-.3-.89-.29-.35,0-.58.49-1.34.38-.48-.07-2.39-1.27-3-1.45s-1.23-.05-1.91-.22c-1.04-.25-1.92-1.08-2.93-1.41-.03,3.03-1.37,5.75-2.04,8.65-1.08,4.68-1.16,9.92-.86,14.73.18,2.93,1.26,5.88.94,8.84-.08.76-.75,3.71-1.38,4.02-2.12,1.03-1.31-1.77-1.33-2.63-.04-1.89-1.12-2.61-2.1-3.88-1.66-2.15.9-2.36.97-4.23.13-3.43-2.29-7.06-1.94-10.77.08-.85.42-1.63.55-2.47-1.72-1.61-3.5-3.64-5.29-5.13-2.05-1.71-8.96-5.4-9.92-7.25-1.17-2.26,3.06-5.14,4.61-6.33-.82-1.55-3.5-1.27-4.43-2.13-.25-.24-1.69-2.16-1.91-2.53-.3-.52-1.21-2.24-.29-2.53l5.56-.42c3.17-.26,6.37.44,9.48.59,2.38.11,2.95-2.25,2.47-4.2-.17-.68-1.68-3.54-2.18-3.99-1.16-1.05-2.62.04-3.99.28-1.9.32-4.96.52-6.93.61-2.99.13-5.93-.29-8.89-.58-.67.21-4,2.89-4.26,2.88-.87-.02,1.04-1.78.87-1.92-1.45-.17-2.16,1.78-3.19,1.93-.82.12.35-1.1.29-1.16-.38,0-.85.22-1.16-.1.24-.31.55-.47.89-.65,1.62-.85,5.22-2.55,6.94-2.71,3.56-.34,6.87-.53,10.42-.57,2.83-.03,4.88-1.45,7.35-2.32,1.85-.65,4.05-.26,3.88-2.89-.8-.1-1.69-1.06-2.25-1.25-.38-.13-.64.08-.96.02-1.68-.33-2.76-2.38-1.79-3.9.22-.34.57-.36.73-.63.17-.3.16-.78.38-1.16,1.19-2.07,3.74-3.05,5.98-2.09,1.49.65,1.12,1.61,1.66,2.19.34.36,1.75.72,1.85.85.36.48-.3,1.03-.26,1.42.05.62.82.89.45,2.06-.45,1.43-3.02.32-1.63,3.14.21.42.54,1.01,1.05,1.09,1.15.17,1.1-1.06,1.54-1.73.37-.57,1.05-1.03,1.52-1.76,1.42-2.18,1.7-4.11,2.42-6.44.39-1.26,2.29-5.63,3.02-6.62.61-.84,1.38-1.15,2.27-1.59.59-.29,4.05-1.78,4.38-1.5ZM207.86,79.61l-.98-9.13c-.05-.49-.48-1.06-.95-1.18-.52-.14-3.45,1.31-4.21,1.61-1.01.4-2.07.81-3.14,1.01.46.74,1.26,1.1,1.84,1.73,1.2,1.31,2.69,4.55,4.46,4.8.78.11,1.91-.23,2.49.41.23.26.16.75.49.76Z"/>
  </g>
  <g>
    <path class="st1" d="M22.11,79.02c0-13.77,6.85-22.96,14.08-22.96,6.54,0,14.02,6.21,14.02,21.17s-7.8,22.79-14.02,22.79c-6.85,0-14.08-6.55-14.08-21ZM44.89,83.7c0-10.8-4.59-27.04-11.39-25.93-4.59.77-6.12,7.57-6.12,14.88,0,10.03,3.69,25.51,10.65,25.51,5.17,0,6.85-7.23,6.85-14.45Z"/>
    <path class="st1" d="M62.12,97.98c1.74-.94,2.11-3.49,2.11-9.61v-19.56c0-5.02-.79-5.87-2.11-6.8v-1.19l6.96-4.93.53.68v7.14c2.9-3.83,6.7-7.65,10.81-7.65,4.85,0,8.12,4.08,8.12,14.03v18.28c0,6.12.37,8.67,2.11,9.61v1.19h-9.59v-1.19c1.74-.94,2.11-3.49,2.11-9.61v-16.75c0-7.65-2.06-12.16-5.96-12.16-2.48,0-4.74,1.96-7.59,5.7v23.21c0,6.12.37,8.67,2.11,9.61v1.19h-9.59v-1.19Z"/>
    <path class="st2" d="M110.25,120.09l13.65-41.92c2.85-8.84,3.53-12.75,3.53-14.96,0-1.19-.21-2.13-1.11-2.13-.95,0-2.69,1.7-4.85,5.61l-.47-.77c4.17-7.14,6.75-9.95,8.7-9.95s3,2.38,3,5.1c0,2.21-.74,7.31-4.22,18.36l-.84,2.64c6.91-13.01,13.87-26.1,18.82-26.02,2,0,3.37,3.32,3.37,7.06,0,15.47-12.13,36.64-21.4,36.64-2.43,0-4.01-2.47-4.85-4.85l-8.17,26.02c-.26.85-.63,1.19-1.21,1.19h-3.16c-.79,0-1.16-.85-.79-2.04ZM132.65,95.85c7.01,0,12.02-18.96,12.02-29.16,0-3.91-.63-5.61-1.85-5.61-2.85,0-10.23,12.67-16.55,25.51l-.16.34c1.21,5.02,3.85,8.93,6.54,8.93Z"/>
    <path class="st2" d="M156.95,89.31c0-14.96,12.28-33.33,19.51-33.33,4.59,0,5.48,6.12,5.48,9.78,0,18.79-13.76,34.09-18.93,34.09-3.85,0-6.06-4.68-6.06-10.54ZM176.67,68.9c0-5.95-1.69-8.59-4.43-8.59-5.96,0-10.02,14.62-10.02,25.34,0,4.25.74,10.03,4.59,10.03,6.12,0,9.86-17.51,9.86-26.78Z"/>
    <path class="st2" d="M222.68,97.04c3.48-9.52,10.44-29.84,10.44-33.92,0-1.36-.37-2.13-1.32-2.13-1,0-2.85,1.79-5.01,5.02l-.47-.85c4.38-6.55,7.43-9.18,9.38-9.18,2.11,0,2.85,2.38,2.85,4.42,0,3.66-2.53,12.67-5.22,21.09,2.58-5.36,5.22-10.03,7.7-13.94,4.64-7.23,8.86-11.56,11.44-11.56,1.69,0,2.79,2.21,2.79,4.93.05,7.99-8.75,26.1-8.75,31.03,0,1.53.47,2.47,1.48,2.47,1.05,0,2.74-1.87,4.53-4.59l.47.85c-4.38,6.55-7.28,9.18-8.91,9.18-2.53,0-3.22-3.23-3.22-5.36,0-9.52,8.86-25.59,8.86-31.12,0-1.36-.37-2.38-1.32-2.38-1.63,0-3.9,2.89-6.91,7.4-3.43,5.27-7.38,12.75-10.54,20.23-1.42,4.25-2.69,7.65-3.37,9.35-.32.85-.69,1.19-1.26,1.19h-3.01c-.79,0-1.11-.85-.63-2.13Z"/>
    <path class="st2" d="M262.59,92.88c0-2.89.9-8.08,4.85-19.04l5.48-15.22h-3.95v-1.02l12.86-12.16.53.6-3.9,11.48h6.59l-.37,1.19h-6.59l-6.22,18.37c-1.42,4.17-3.37,9.95-3.37,13.52,0,2.55.79,3.66,1.79,3.66,1.05,0,3-1.7,4.8-4.42l.47.85c-4.38,6.55-7.43,9.18-9.38,9.18-2.21,0-3.58-3.4-3.58-6.97Z"/>
    <path class="st2" d="M286.73,89.73c0-14.88,12.02-33.75,20.67-33.67,2.74,0,4.06,2.21,4.06,5.27,0,5.87-3.85,10.97-19.19,26.53.47,4,2.32,6.29,4.96,6.29,2.11,0,4.22-1.02,7.33-5.36l.47.77c-4.43,6.29-9.17,10.2-11.91,10.2-4.75.08-6.38-5.95-6.38-10.03ZM292.16,86.59c11.33-11.48,13.97-16.66,13.97-22.19,0-2.64-1.05-4.76-3.11-4.76-5.59,0-11.12,15.39-10.86,26.61v.34Z"/>
    <path class="st2" d="M314.41,96.19c0-2.64,1.84-6.72,3.58-6.72,1.11,0,2.37,2.13,2.37,4.51s-1.69,6.21-3.48,6.21c-.95,0-2.48-1.62-2.48-4ZM329.11,42.12c.9-3.49,2.27-4.25,3.64-4.25,2.32,0,3.43,1.79,2.85,4.59-1.32,6.46-7.91,16.92-15.13,42.43l-.9-.25c6.91-24.32,8.12-36.64,9.54-42.51Z"/>
  </g>
</svg>